<svg width="16" height="20" viewBox="0 0 16 20" fill="none" xmlns="http://www.w3.org/2000/svg">
<path d="M15.1872 1.47368H10.9091V1.43158C10.9091 0.631579 10.2674 0 9.45455 0H6.54545C5.73262 0 5.09091 0.631579 5.09091 1.43158V1.47368H0.812834C0.363636 1.47368 0 1.83158 0 2.27368V3.07368C0 3.51579 0.363636 3.87368 0.812834 3.87368H15.1872C15.6364 3.87368 16 3.51579 16 3.07368V2.27368C16 1.83158 15.6364 1.47368 15.1872 1.47368Z" fill="#7D90B2"/>
<path d="M14.1176 4.96841H1.88235C1.64705 4.96841 1.47593 5.15789 1.49732 5.38947L2.09625 17.5789C2.16042 18.9263 3.29411 20 4.66309 20H11.3155C12.6845 20 13.8182 18.9474 13.8823 17.5789L14.4813 5.38947C14.5241 5.17894 14.3315 4.96841 14.1176 4.96841ZM6.67379 16.7368C6.67379 17.1158 6.37432 17.4105 5.9893 17.4105C5.60427 17.4105 5.30481 17.1158 5.30481 16.7368V8.25262C5.30481 7.87368 5.60427 7.57894 5.9893 7.57894C6.37432 7.57894 6.67379 7.87368 6.67379 8.25262V16.7368ZM10.6952 16.7368C10.6952 17.1158 10.3957 17.4105 10.0107 17.4105C9.62566 17.4105 9.3262 17.1158 9.3262 16.7368V8.25262C9.3262 7.87368 9.62566 7.57894 10.0107 7.57894C10.3957 7.57894 10.6952 7.87368 10.6952 8.25262V16.7368Z" fill="#7D90B2"/>
</svg>
