<svg width="20" height="5" viewBox="0 0 20 5" fill="none" xmlns="http://www.w3.org/2000/svg">
<path d="M12.1951 2.14286C12.1951 3.33333 11.2195 4.28571 10 4.28571C8.78049 4.28571 7.80488 3.33333 7.80488 2.14286C7.80488 0.952381 8.78049 0 10 0C11.2195 0 12.1951 0.952381 12.1951 2.14286ZM17.8049 0C16.5854 0 15.6098 0.952381 15.6098 2.14286C15.6098 3.33333 16.5854 4.28571 17.8049 4.28571C19.0244 4.28571 20 3.33333 20 2.14286C20 0.952381 19.0244 0 17.8049 0ZM2.19512 0C0.97561 0 0 0.952381 0 2.14286C0 3.33333 0.97561 4.28571 2.19512 4.28571C3.41463 4.28571 4.39024 3.33333 4.39024 2.14286C4.39024 0.952381 3.41463 0 2.19512 0Z" fill="#606F89"/>
</svg>
